<?xml version="1.0" standalone="no"?><!DOCTYPE svg PUBLIC "-//W3C//DTD SVG 1.1//EN" "http://www.w3.org/Graphics/SVG/1.1/DTD/svg11.dtd"><svg t="1726043905562" class="icon" viewBox="0 0 1024 1024" version="1.1" xmlns="http://www.w3.org/2000/svg" p-id="5403" xmlns:xlink="http://www.w3.org/1999/xlink" width="200" height="200"><path d="M1024 513.024c0 25.6-12.8 74.24-96.768 102.912-43.52 14.848-101.376 23.04-163.84 23.04-14.848 0-30.208-0.512-45.568-1.024 10.752-26.624 17.408-55.296 17.408-84.48 9.216 0.512 18.944 0.512 28.672 0.512 111.616 0 170.496-29.184 175.104-41.472 0-86.528-77.312-157.184-173.568-158.208h-4.608c-35.84 0.512-71.168 11.264-100.864 31.232-23.04-20.48-50.688-35.84-79.872-44.544 17.92-15.872 37.376-30.208 58.368-41.472-61.952-68.096-56.32-174.08 12.288-236.032s174.08-56.32 236.032 12.288c56.832 62.976 57.344 159.744 0.512 223.232 80.896 41.472 136.704 122.368 136.704 214.016z m-261.632-407.04c-44.544 0-81.92 36.352-81.92 81.92s36.352 81.92 81.92 81.92 81.92-36.352 81.92-81.92-36.864-81.92-81.92-81.92z m-81.92 446.464c0 40.96-14.848 80.384-42.496 110.592 81.408 41.472 137.216 121.856 137.216 214.528 0 25.6-12.8 74.24-96.768 102.912-43.52 14.848-101.376 23.04-163.84 23.04s-119.296-8.704-163.84-23.04c-84.48-28.672-96.768-76.288-96.768-102.912 0-92.16 54.784-172.032 135.68-213.504-61.952-68.096-56.32-174.08 12.288-236.032s174.08-56.32 236.032 12.288c27.136 31.232 42.496 71.168 42.496 112.128z m-340.48 325.12c4.608 12.288 63.488 41.472 175.104 41.472s170.496-29.184 175.104-41.472c0-86.528-77.312-157.184-173.568-158.208h-4.608c-95.232 1.536-172.032 72.192-172.032 158.208zM513.536 471.04c-44.544 0-81.92 36.352-81.92 81.92 0 44.544 36.352 81.92 81.92 81.92 44.544 0 81.92-36.352 81.92-81.92s-36.864-81.92-81.92-81.92zM408.576 357.888c-27.648 14.336-51.2 34.304-69.632 58.368-23.552-10.752-49.664-15.872-76.288-15.872h-4.608c-94.72 1.024-171.52 71.68-171.52 157.696 4.608 12.288 63.488 41.472 175.104 41.472 12.8 0 24.064-0.512 34.816-1.024 6.144 29.696 18.432 57.344 35.84 82.432-23.552 2.56-47.104 3.584-71.68 3.584-61.952 0-119.296-8.704-163.84-23.04C12.288 632.32 0 584.704 0 558.08c0-92.16 54.784-172.032 135.68-213.504-61.952-68.096-56.32-174.08 12.288-236.032s174.08-56.32 236.032 12.288c57.344 63.488 57.344 159.744 1.024 222.72 7.68 4.608 15.872 8.704 23.552 14.336z m-148.48-206.336c-44.544 0-81.92 36.352-81.92 81.92s36.352 81.92 81.92 81.92 81.92-36.352 81.92-81.92-37.376-81.92-81.92-81.92z" p-id="5404"></path></svg>