<?xml version="1.0" standalone="no"?><!DOCTYPE svg PUBLIC "-//W3C//DTD SVG 1.1//EN" "http://www.w3.org/Graphics/SVG/1.1/DTD/svg11.dtd"><svg t="1726044074800" class="icon" viewBox="0 0 1137 1024" version="1.1" xmlns="http://www.w3.org/2000/svg" p-id="9012" xmlns:xlink="http://www.w3.org/1999/xlink" width="222.0703125" height="200"><path d="M829.573458 305.578582l109.283526-109.255081L827.866792 85.33331l-109.283525 109.226636 110.990191 110.990191z m-68.86398 68.835536L649.719286 263.452371 161.043866 751.985569c-20.366217 20.337772-45.767098 67.64087-51.569763 96.056862l-17.18044 83.683532 83.740421-17.180439c28.728881-5.887998 75.434646-31.061325 96.028418-51.655097l488.618531-488.476309z m9.102219-350.151014a81.720866 81.720866 0 0 1 116.138635 0l114.06219 113.976858a82.147533 82.147533 0 0 1 0 116.138634L331.710486 922.53841c-32.085324 32.028436-93.582196 65.336871-138.723517 74.581313l-125.439966 25.713771A56.206207 56.206207 0 0 1 1.186133 956.501068l25.713771-125.383077c9.130664-44.543988 42.495988-106.666637 74.581312-138.751961L769.783253 24.23466zM951.40098 824.88866c-6.428443 39.082656-30.378658 74.382202-68.209759 102.20086 77.596423 4.977776 136.419518-20.764439 180.565284-77.141312a41.585766 41.585766 0 0 1 58.055095-7.224887c18.033773 13.937774 21.304883 39.736878 7.281775 57.656873-75.71909 96.711084-186.282615 129.25152-323.982132 97.848862a234.012379 234.012379 0 0 1-50.119097-17.351106C640.048178 1009.635275 534.91754 1023.999716 439.657122 1023.999716A41.244433 41.244433 0 0 1 398.270467 982.897505a41.244433 41.244433 0 0 1 41.386655-41.073767c73.528868 0 154.282624-9.415108 242.261266-28.302214-16.298662-30.407103-20.764439-65.991093-12.287996-103.167971 17.863106-78.307534 88.689753-137.557295 166.684398-126.293299 77.795534 11.207108 126.663076 70.826647 115.114635 140.799961z m-201.102166 3.612443c-5.660443 24.917326-0.199111 47.047098 18.119106 63.800871 119.096856-35.83999 130.133297-116.252412 55.978651-126.94752-31.402658-4.522665-65.080871 23.665771-74.069313 63.146649z" fill="#2A2A2A" p-id="9013"></path></svg>