<?xml version="1.0" standalone="no"?><!DOCTYPE svg PUBLIC "-//W3C//DTD SVG 1.1//EN" "http://www.w3.org/Graphics/SVG/1.1/DTD/svg11.dtd"><svg t="1730701273866" class="icon" viewBox="0 0 1024 1024" version="1.1" xmlns="http://www.w3.org/2000/svg" p-id="5272" xmlns:xlink="http://www.w3.org/1999/xlink" width="200" height="200"><path d="M402.176 921.6a102.4 102.4 0 0 0 204.8 0v-25.6h-204.8zM115.968 59.648A51.2 51.2 0 0 0 43.52 131.84l832.512 832.768a51.2 51.2 0 0 0 72.448 0 51.2 51.2 0 0 0 0-72.448zM833.792 539.392a25.6 25.6 0 0 1-22.016-25.6V419.84c0-155.904-63.488-293.888-189.184-346.112A121.856 121.856 0 0 0 512 0h-12.8a121.344 121.344 0 0 0-111.872 74.752 279.04 279.04 0 0 0-120.32 98.304l73.984 74.24A180.736 180.736 0 0 1 504.576 153.6h12.544c182.784 8.448 192.256 222.72 192.256 265.728v94.208A128 128 0 0 0 819.2 640a51.2 51.2 0 0 1 43.52 58.112 51.2 51.2 0 0 1-32.512 38.912l74.24 74.24a149.76 149.76 0 0 0 59.648-99.84 153.6 153.6 0 0 0-130.304-172.032zM203.008 742.4a55.04 55.04 0 0 1-56.32-43.776A51.2 51.2 0 0 1 189.952 640a128 128 0 0 0 109.824-126.464v-89.6L204.8 328.704A490.496 490.496 0 0 0 197.376 409.6v104.448a25.6 25.6 0 0 1-22.272 25.6 153.6 153.6 0 0 0-130.048 172.544A157.44 157.44 0 0 0 203.008 844.8h517.12l-102.4-102.4z" p-id="5273"></path></svg>