<?xml version="1.0" standalone="no"?><!DOCTYPE svg PUBLIC "-//W3C//DTD SVG 1.1//EN" "http://www.w3.org/Graphics/SVG/1.1/DTD/svg11.dtd"><svg t="1730701977239" class="icon" viewBox="0 0 1024 1024" version="1.1" xmlns="http://www.w3.org/2000/svg" p-id="25410" xmlns:xlink="http://www.w3.org/1999/xlink" width="200" height="200"><path d="M425.189878 522.44898A86.810122 86.810122 0 0 1 512 609.259102v160.747102A86.810122 86.810122 0 0 1 425.189878 856.816327L215.875918 856.795429l-43.321469 43.342367a45.97551 45.97551 0 0 1-62.380408 2.445061l-2.654041-2.445061A45.97551 45.97551 0 0 1 94.040816 867.620571V609.259102A86.810122 86.810122 0 0 1 180.850939 522.44898z m0 83.591836H180.850939a3.218286 3.218286 0 0 0-3.218286 3.218286v167.518041l3.594449-3.552653h243.962776a3.218286 3.218286 0 0 0 3.218285-3.218286v-160.747102a3.218286 3.218286 0 0 0-3.218285-3.218286zM846.367347 146.285714a83.591837 83.591837 0 0 1 83.591837 83.591837v428.763429a45.97551 45.97551 0 0 1-13.458286 32.517224l-2.654041 2.445061a45.97551 45.97551 0 0 1-62.380408-2.445061l-43.321469-43.342367L574.693878 647.836735v-83.591837l-0.083592-4.325878C572.729469 504.476735 526.565878 459.755102 470.204082 459.755102h-167.183674V229.877551a83.591837 83.591837 0 0 1 83.591837-83.591837h459.755102z m0 83.591837H386.612245v146.264816L470.204082 376.163265a188.081633 188.081633 0 0 1 187.977142 181.645062l0.10449 6.415673 184.487184 0.020898 3.594449 3.552653V229.877551z" fill="#000000" p-id="25411"></path></svg>
