<?xml version="1.0" standalone="no"?><!DOCTYPE svg PUBLIC "-//W3C//DTD SVG 1.1//EN" "http://www.w3.org/Graphics/SVG/1.1/DTD/svg11.dtd"><svg t="1730701165619" class="icon" viewBox="0 0 1024 1024" version="1.1" xmlns="http://www.w3.org/2000/svg" p-id="4260" xmlns:xlink="http://www.w3.org/1999/xlink" width="200" height="200"><path d="M512 127.99c-212.08 0-384.01 171.93-384.01 384.01S299.92 896.01 512 896.01 896.01 724.08 896.01 512 724.08 127.99 512 127.99z m0 64c79.13 0 151.5 28.78 207.36 76.37l-451 451C220.77 663.5 191.99 591.13 191.99 512c0-176.74 143.27-320.01 320.01-320.01z m0 640.02c-74.55 0-143.08-25.56-197.48-68.3l449.19-449.19c42.74 54.4 68.3 122.93 68.3 197.48 0 176.73-143.27 320.01-320.01 320.01z" fill="#000000" p-id="4261"></path></svg>
