<?xml version="1.0" standalone="no"?><!DOCTYPE svg PUBLIC "-//W3C//DTD SVG 1.1//EN" "http://www.w3.org/Graphics/SVG/1.1/DTD/svg11.dtd"><svg t="1720270097324" class="icon" viewBox="0 0 1024 1024" version="1.1" xmlns="http://www.w3.org/2000/svg" p-id="28590" xmlns:xlink="http://www.w3.org/1999/xlink" width="200" height="200"><path d="M511.500488 111.890732c220.706466 0 399.609756 178.919274 399.609756 399.609756 0 97.397885-34.845971 186.659715-92.751423 255.996004L953.720632 902.858302a7.992195 7.992195 0 0 1 0 11.302962l-39.559368 39.559368a7.992195 7.992195 0 0 1-11.302962 0L767.496492 818.358821C698.162201 876.263274 608.90137 911.110244 511.500488 911.110244c-220.706466 0-399.609756-178.919274-399.609756-399.609756s178.90329-399.609756 399.609756-399.609756z m-97.93536 332.122661L304.39374 594.1248a7.992195 7.992195 0 0 1-6.463687 3.291785l-102.729678 0.004995C232.94951 736.715551 360.258185 839.180488 511.500488 839.180488s278.550978-102.463938 316.300113-241.758908L721.911009 597.416585a7.992195 7.992195 0 0 1-6.188956-2.936132l-78.358478-95.910338-91.173963 111.171434a7.992195 7.992195 0 0 1-12.647649-0.373635L413.564129 444.013393zM511.500488 183.820488c-180.974267 0-327.68 146.709729-327.68 327.68 0 7.386786 0.244761 14.715629 0.725292 21.980534l84.895094-0.001998 137.714513-189.356082a7.992195 7.992195 0 0 1 12.932371 0.006994L542.72 513.145881l88.547528-107.967563a7.992195 7.992195 0 0 1 12.367922 0.010989L748.448094 533.479024l90.008101 0.001998A332.565229 332.565229 0 0 0 839.180488 511.500488c0-180.970271-146.705733-327.68-327.68-327.68z" fill="#000000" p-id="28591"></path></svg>